<?xml version="1.0" standalone="no"?>
<!DOCTYPE svg PUBLIC "-//W3C//DTD SVG 20010904//EN"
 "http://www.w3.org/TR/2001/REC-SVG-20010904/DTD/svg10.dtd">
<svg version="1.0" xmlns="http://www.w3.org/2000/svg"
 width="260.000000pt" height="260.000000pt" viewBox="0 0 260.000000 260.000000"
 preserveAspectRatio="xMidYMid meet">
<metadata>
Created by potrace 1.11, written by Peter Selinger 2001-2013
</metadata>
<g transform="translate(0.000000,260.000000) scale(0.100000,-0.100000)"
fill="#000000" stroke="none">
<path d="M364 2105 c-36 -15 -47 -36 -38 -73 10 -40 23 -52 56 -52 41 0 65 15
72 46 10 36 -1 62 -32 78 -23 12 -33 12 -58 1z"/>
<path d="M1190 2073 c-64 -11 -188 -46 -244 -69 -77 -33 -205 -117 -271 -177
l-50 -47 -85 0 c-225 -3 -364 -39 -441 -114 -106 -104 -44 -258 171 -420 36
-27 75 -53 88 -59 12 -6 22 -17 23 -26 1 -54 9 -139 14 -172 4 -21 7 -42 7
-46 1 -5 13 -45 29 -90 68 -202 201 -374 379 -488 69 -45 210 -109 261 -119
123 -22 157 -27 221 -28 201 -4 383 50 553 165 77 52 188 165 243 247 36 54
48 65 72 66 132 7 251 35 318 76 90 55 115 157 64 252 -36 67 -130 159 -229
226 -81 54 -82 56 -94 110 -42 199 -191 422 -366 546 -80 58 -212 119 -310
145 -75 19 -290 33 -353 22z m-625 -368 c-33 -46 -92 -153 -109 -195 -10 -25
-22 -52 -26 -61 -5 -9 -16 -54 -25 -100 -10 -46 -19 -90 -21 -97 -5 -18 -68
27 -161 112 -124 115 -153 215 -79 270 59 45 148 71 280 83 39 3 72 6 73 7 1
0 20 1 42 1 39 1 40 0 26 -20z m1809 -576 c110 -97 161 -191 134 -246 -20 -41
-86 -80 -174 -102 -70 -17 -174 -33 -174 -25 0 1 9 23 19 48 19 43 43 130 57
206 4 19 7 76 7 127 l1 92 40 -29 c23 -15 63 -47 90 -71z"/>
</g>
</svg>
